<svg width="137" height="41" viewBox="0 0 137 41" fill="none" xmlns="http://www.w3.org/2000/svg">
<path d="M71.09 12.946V29H67.87V18.558L63.569 29H61.131L56.807 18.558V29H53.587V12.946H57.244L62.35 24.883L67.456 12.946H71.09Z" fill="#061829"/>
<path d="M86.1186 22.353C86.1186 22.813 86.0879 23.227 86.0266 23.595H76.7116C76.7882 24.515 77.1102 25.2357 77.6776 25.757C78.2449 26.2784 78.9426 26.539 79.7706 26.539C80.9666 26.539 81.8176 26.0254 82.3236 24.998H85.7966C85.4286 26.2247 84.7232 27.2367 83.6806 28.034C82.6379 28.816 81.3576 29.207 79.8396 29.207C78.6129 29.207 77.5089 28.9387 76.5276 28.402C75.5616 27.85 74.8026 27.0757 74.2506 26.079C73.7139 25.0824 73.4456 23.9324 73.4456 22.629C73.4456 21.3104 73.7139 20.1527 74.2506 19.156C74.7872 18.1594 75.5386 17.3927 76.5046 16.856C77.4706 16.3194 78.5822 16.051 79.8396 16.051C81.0509 16.051 82.1319 16.3117 83.0826 16.833C84.0486 17.3544 84.7922 18.098 85.3136 19.064C85.8502 20.0147 86.1186 21.111 86.1186 22.353ZM82.7836 21.433C82.7682 20.605 82.4692 19.9457 81.8866 19.455C81.3039 18.949 80.5909 18.696 79.7476 18.696C78.9502 18.696 78.2756 18.9414 77.7236 19.432C77.1869 19.9074 76.8572 20.5744 76.7346 21.433H82.7836Z" fill="#061829"/>
<path d="M87.6409 22.583C87.6409 21.295 87.8939 20.1527 88.3999 19.156C88.9212 18.1594 89.6265 17.3927 90.5159 16.856C91.4052 16.3194 92.3942 16.051 93.4829 16.051C94.3109 16.051 95.1005 16.235 95.8519 16.603C96.6032 16.9557 97.2012 17.431 97.6459 18.029V11.98H100.912V29H97.6459V27.114C97.2472 27.7427 96.6875 28.2487 95.9669 28.632C95.2462 29.0154 94.4105 29.207 93.4599 29.207C92.3865 29.207 91.4052 28.931 90.5159 28.379C89.6265 27.827 88.9212 27.0527 88.3999 26.056C87.8939 25.044 87.6409 23.8864 87.6409 22.583ZM97.6689 22.629C97.6689 21.847 97.5155 21.18 97.2089 20.628C96.9022 20.0607 96.4882 19.6314 95.9669 19.34C95.4455 19.0334 94.8859 18.88 94.2879 18.88C93.6899 18.88 93.1379 19.0257 92.6319 19.317C92.1259 19.6084 91.7119 20.0377 91.3899 20.605C91.0832 21.157 90.9299 21.8164 90.9299 22.583C90.9299 23.3497 91.0832 24.0244 91.3899 24.607C91.7119 25.1744 92.1259 25.6114 92.6319 25.918C93.1532 26.2247 93.7052 26.378 94.2879 26.378C94.8859 26.378 95.4455 26.2324 95.9669 25.941C96.4882 25.6344 96.9022 25.205 97.2089 24.653C97.5155 24.0857 97.6689 23.411 97.6689 22.629Z" fill="#061829"/>
<path d="M105.69 14.74C105.122 14.74 104.647 14.5637 104.264 14.211C103.896 13.843 103.712 13.3907 103.712 12.854C103.712 12.3174 103.896 11.8727 104.264 11.52C104.647 11.152 105.122 10.968 105.69 10.968C106.257 10.968 106.725 11.152 107.093 11.52C107.476 11.8727 107.668 12.3174 107.668 12.854C107.668 13.3907 107.476 13.843 107.093 14.211C106.725 14.5637 106.257 14.74 105.69 14.74ZM107.277 16.258V29H104.057V16.258H107.277Z" fill="#061829"/>
<path d="M109.63 22.629C109.63 21.3104 109.898 20.1604 110.435 19.179C110.972 18.1824 111.715 17.4157 112.666 16.879C113.617 16.327 114.705 16.051 115.932 16.051C117.511 16.051 118.815 16.4497 119.842 17.247C120.885 18.029 121.582 19.133 121.935 20.559H118.462C118.278 20.007 117.964 19.5777 117.519 19.271C117.09 18.949 116.553 18.788 115.909 18.788C114.989 18.788 114.261 19.1254 113.724 19.8C113.187 20.4594 112.919 21.4024 112.919 22.629C112.919 23.8404 113.187 24.7834 113.724 25.458C114.261 26.1174 114.989 26.447 115.909 26.447C117.212 26.447 118.063 25.8644 118.462 24.699H121.935C121.582 26.079 120.885 27.1754 119.842 27.988C118.799 28.8007 117.496 29.207 115.932 29.207C114.705 29.207 113.617 28.9387 112.666 28.402C111.715 27.85 110.972 27.0834 110.435 26.102C109.898 25.1054 109.63 23.9477 109.63 22.629Z" fill="#061829"/>
<path d="M123.466 22.583C123.466 21.295 123.719 20.1527 124.225 19.156C124.746 18.1594 125.444 17.3927 126.318 16.856C127.207 16.3194 128.196 16.051 129.285 16.051C130.236 16.051 131.064 16.2427 131.769 16.626C132.49 17.0094 133.065 17.4924 133.494 18.075V16.258H136.737V29H133.494V27.137C133.08 27.735 132.505 28.2334 131.769 28.632C131.048 29.0154 130.213 29.207 129.262 29.207C128.189 29.207 127.207 28.931 126.318 28.379C125.444 27.827 124.746 27.0527 124.225 26.056C123.719 25.044 123.466 23.8864 123.466 22.583ZM133.494 22.629C133.494 21.847 133.341 21.18 133.034 20.628C132.727 20.0607 132.313 19.6314 131.792 19.34C131.271 19.0334 130.711 18.88 130.113 18.88C129.515 18.88 128.963 19.0257 128.457 19.317C127.951 19.6084 127.537 20.0377 127.215 20.605C126.908 21.157 126.755 21.8164 126.755 22.583C126.755 23.3497 126.908 24.0244 127.215 24.607C127.537 25.1744 127.951 25.6114 128.457 25.918C128.978 26.2247 129.53 26.378 130.113 26.378C130.711 26.378 131.271 26.2324 131.792 25.941C132.313 25.6344 132.727 25.205 133.034 24.653C133.341 24.0857 133.494 23.411 133.494 22.629Z" fill="#061829"/>
<path d="M19.9966 40.5006C17.8953 40.5006 15.9183 39.7008 14.4053 38.232C12.8318 36.7055 11.9653 34.6576 11.9653 32.4657V29.3861C11.9653 27.3724 12.7818 25.4011 14.2058 23.9783L23.4777 14.7058C24.2915 13.892 24.7584 12.7655 24.7584 11.6146V8.80435C24.7584 6.10997 22.6901 3.85622 20.1472 3.7793C18.8604 3.75475 17.6181 4.21666 16.687 5.12012C15.7554 6.02468 15.2424 7.23748 15.2424 8.53557V14.1046C15.2424 15.0091 14.5089 15.7429 13.604 15.7429H8.30326C5.60943 15.7429 3.35568 17.8111 3.2793 20.3528C3.23984 21.6532 3.71612 22.882 4.61958 23.813C5.52413 24.7453 6.73675 25.2583 8.03502 25.2583C8.94012 25.2583 9.67337 25.9921 9.67337 26.8967C9.67337 27.8012 8.94012 28.535 8.03502 28.535C5.84311 28.535 3.79505 27.669 2.26818 26.0956C0.742405 24.5224 -0.0617639 22.4488 0.00370438 20.2548C0.132822 15.9604 3.85578 12.466 8.30326 12.466H11.9651V8.53557C11.9651 6.34347 12.8317 4.29559 14.4051 2.76927C15.9774 1.24258 18.0429 0.426777 20.2456 0.504611C24.5405 0.633547 28.0349 4.35724 28.0349 8.80435V11.6148C28.0349 13.6288 27.2183 15.6 25.7944 17.0226L16.5224 26.2951C15.7086 27.1089 15.242 28.2353 15.242 29.3861V32.4657C15.242 33.7636 15.755 34.9764 16.6867 35.8811C17.6183 36.7857 18.8578 37.256 20.1474 37.2219C22.6897 37.1452 24.758 34.8913 24.758 32.1969V26.8967C24.758 25.9921 25.4914 25.2583 26.3963 25.2583H31.6965C34.3904 25.2583 36.6441 23.1901 36.7205 20.6483C36.76 19.348 36.2837 18.1192 35.3799 17.1881C34.4758 16.2559 33.263 15.7427 31.965 15.7427C31.0599 15.7427 30.3266 15.0089 30.3266 14.1044C30.3266 13.1998 31.06 12.466 31.965 12.466C34.1569 12.466 36.2049 13.332 37.7318 14.9054C39.2578 16.4787 40.0619 18.5522 39.9963 20.7463C39.8673 25.0407 36.1442 28.535 31.6967 28.535H28.035V32.1969C28.035 36.6438 24.5407 40.3673 20.2463 40.4963C20.1623 40.4997 20.0792 40.5006 19.9966 40.5006Z" fill="#247CFF"/>
</svg>
