<svg width="27" height="22" viewBox="0 0 27 22" fill="none" xmlns="http://www.w3.org/2000/svg">
<path d="M17.9663 0.00488346V0H19.2271L19.6878 0.0927858C19.9949 0.153023 20.2738 0.231964 20.5243 0.329634C20.7749 0.427303 21.0173 0.541259 21.2517 0.671476C21.4861 0.801694 21.6986 0.934377 21.8894 1.06948C22.0785 1.20297 22.2482 1.34459 22.3985 1.49434C22.5472 1.64573 22.7792 1.68479 23.0944 1.61154C23.4096 1.53829 23.749 1.43654 24.1127 1.30633C24.4764 1.17611 24.8361 1.0296 25.1917 0.866815C25.5473 0.704024 25.7639 0.600666 25.8415 0.556715C25.9174 0.511152 25.9579 0.486735 25.9627 0.483463L25.9675 0.476138L25.9918 0.463929L26.016 0.45172L26.0403 0.439512L26.0645 0.427303L26.0694 0.419978L26.0766 0.415094L26.0839 0.410211L26.0888 0.402886L26.113 0.395561L26.1373 0.390677L26.1324 0.427303L26.1251 0.463929L26.113 0.500555L26.1009 0.537181L26.0888 0.561598L26.0766 0.586016L26.0645 0.622642C26.0565 0.647059 26.0484 0.679607 26.0403 0.720311C26.0322 0.761014 25.9554 0.92378 25.8099 1.20866C25.6645 1.49353 25.4826 1.78246 25.2644 2.07547C25.0462 2.36848 24.8506 2.58985 24.6777 2.73962C24.5031 2.89101 24.3875 2.99681 24.3309 3.05705C24.2744 3.1189 24.2057 3.17586 24.1248 3.22797L24.0036 3.30855L23.9794 3.32075L23.9551 3.33296L23.9503 3.34029L23.943 3.34517L23.9357 3.35006L23.9309 3.35738L23.9066 3.36959L23.8824 3.3818L23.8776 3.38912L23.8703 3.39401L23.863 3.39889L23.8581 3.40622L23.8533 3.41354L23.846 3.41842L23.8387 3.42331L23.8339 3.43063H23.9551L24.634 3.28413C25.0866 3.18646 25.519 3.06845 25.9312 2.93008L26.5858 2.71032L26.6586 2.6859L26.6949 2.6737L26.7192 2.66149L26.7434 2.64928L26.7677 2.63707L26.7919 2.62486L26.8404 2.61754L26.8889 2.61265V2.66149L26.8768 2.66637L26.8646 2.6737L26.8598 2.68102L26.8525 2.6859L26.8452 2.69079L26.8404 2.69811L26.8356 2.70544L26.8283 2.71032L26.821 2.71521L26.8162 2.72253L26.8113 2.72986L26.804 2.73474L26.7919 2.75916L26.7798 2.78357L26.7725 2.78846C26.7693 2.79334 26.6667 2.93169 26.4646 3.20355C26.2625 3.47703 26.1534 3.61537 26.1373 3.61865C26.1211 3.62353 26.0985 3.64795 26.0694 3.6919C26.0419 3.73746 25.8706 3.91898 25.5554 4.2364C25.2402 4.55383 24.9315 4.83624 24.6292 5.08368C24.3253 5.33274 24.1717 5.63876 24.1685 6.00178C24.1637 6.36315 24.1451 6.77175 24.1127 7.22753C24.0804 7.68332 24.0198 8.17572 23.9309 8.70477C23.842 9.23382 23.7046 9.83205 23.5187 10.4994C23.3328 11.1668 23.1065 11.818 22.8398 12.4528C22.5731 13.0877 22.2943 13.6574 22.0033 14.162C21.7124 14.6667 21.4456 15.094 21.2032 15.444C20.9607 15.7939 20.7142 16.1236 20.4637 16.4329C20.2131 16.7421 19.8964 17.0905 19.5133 17.4779C19.1286 17.8637 18.9184 18.0753 18.8829 18.1128C18.8457 18.1486 18.6873 18.2821 18.4076 18.5132C18.1296 18.746 17.8306 18.9787 17.5105 19.2115C17.1921 19.4427 16.8995 19.6356 16.6328 19.7902C16.3661 19.9449 16.0444 20.1215 15.6678 20.3201C15.2928 20.5203 14.8871 20.7059 14.4507 20.8768C14.0142 21.0477 13.5536 21.2064 13.0686 21.3529C12.5837 21.4994 12.115 21.6134 11.6624 21.6948C11.2098 21.7762 10.6966 21.8454 10.1227 21.9023L9.262 21.9878V22H7.686V21.9878L7.47991 21.9756C7.34253 21.9675 7.22938 21.9593 7.14047 21.9512C7.05158 21.943 6.71616 21.8983 6.13426 21.8169C5.55235 21.7355 5.09572 21.6541 4.76435 21.5727C4.43301 21.4913 3.93999 21.3367 3.28534 21.1088C2.6307 20.8809 2.07061 20.6505 1.60509 20.4178C1.14119 20.1866 0.850237 20.0401 0.732231 19.9782C0.61585 19.918 0.484921 19.8431 0.339445 19.7536L0.12123 19.6193L0.116405 19.612L0.109107 19.6071L0.101833 19.6022L0.0969843 19.5949L0.0727382 19.5827L0.0484921 19.5705L0.0436672 19.5632L0.0363691 19.5583L0.0290953 19.5534L0.0242461 19.5461L0.0194211 19.5387L0.012123 19.5339H0V19.485L0.0242461 19.4899L0.0484921 19.4972L0.157599 19.5094C0.230338 19.5176 0.428355 19.5298 0.751628 19.5461C1.07493 19.5623 1.4184 19.5623 1.78209 19.5461C2.14578 19.5298 2.51757 19.4931 2.89741 19.4362C3.27727 19.3792 3.72582 19.2815 4.24306 19.1432C4.76033 19.0048 5.23555 18.8404 5.66876 18.6499C6.10034 18.4579 6.40744 18.3146 6.59011 18.2202C6.77113 18.1274 7.04753 17.9549 7.4193 17.7026L7.97696 17.3241L7.98181 17.3168L7.98908 17.3119L7.99638 17.307L8.0012 17.2997L8.00605 17.2923L8.01333 17.2875L8.02062 17.2826L8.02545 17.2753L8.0497 17.2679L8.07394 17.263L8.07879 17.2386L8.08606 17.2142L8.09336 17.2093L8.09819 17.202L7.90422 17.1898C7.77491 17.1817 7.64964 17.1735 7.5284 17.1654C7.40717 17.1572 7.21726 17.1206 6.95862 17.0555C6.70001 16.9904 6.42118 16.8927 6.12213 16.7625C5.82311 16.6323 5.53215 16.4776 5.24927 16.2986C4.96642 16.1195 4.76193 15.9705 4.63585 15.8517C4.51139 15.7345 4.34974 15.5685 4.15093 15.3536C3.95373 15.1371 3.78239 14.9149 3.63691 14.687C3.49143 14.4591 3.35243 14.1962 3.2199 13.8983L3.01864 13.4539L3.00651 13.4173L2.99439 13.3807L2.98712 13.3563L2.98227 13.3319L3.01864 13.3367L3.055 13.3441L3.32171 13.3807C3.49953 13.4051 3.77836 13.4132 4.1582 13.4051C4.53806 13.397 4.80072 13.3807 4.9462 13.3563C5.09167 13.3319 5.18059 13.3156 5.21291 13.3074L5.2614 13.2952L5.32201 13.283L5.38263 13.2708L5.38748 13.2635L5.39475 13.2586L5.40205 13.2537L5.40687 13.2464L5.35838 13.2342L5.30989 13.222L5.2614 13.2098L5.21291 13.1976L5.16441 13.1853C5.13209 13.1772 5.07553 13.1609 4.99469 13.1365C4.91388 13.1121 4.69566 13.0226 4.34005 12.8679C3.98445 12.7133 3.70157 12.5627 3.49143 12.4162C3.28077 12.2693 3.07991 12.1086 2.89013 11.9352C2.70101 11.7594 2.49332 11.5331 2.26701 11.2564C2.04072 10.9797 1.83868 10.6582 1.66086 10.2919C1.48306 9.92564 1.34971 9.57567 1.2608 9.24195C1.17224 8.91021 1.11382 8.57104 1.08625 8.22864L1.04258 7.71587L1.06683 7.72076L1.09107 7.72808L1.11532 7.74029L1.13957 7.7525L1.16381 7.76471L1.18806 7.77691L1.56387 7.94784C1.81443 8.06179 2.12558 8.15946 2.49735 8.24084C2.86913 8.32223 3.09137 8.36701 3.16411 8.37514L3.27322 8.38735H3.49143L3.48661 8.38002L3.47931 8.37514L3.47204 8.37026L3.46719 8.36293L3.46236 8.35561L3.45507 8.35072L3.44779 8.34584L3.44294 8.33851L3.4187 8.3263L3.39445 8.3141L3.38962 8.30677L3.38233 8.30189L3.37505 8.297L3.3702 8.28968L3.34596 8.27747L3.32171 8.26526L3.31689 8.25794C3.31204 8.25466 3.24252 8.20258 3.10835 8.10166C2.97579 7.99911 2.83679 7.86645 2.69131 7.70366C2.54584 7.54087 2.40036 7.36995 2.25488 7.1909C2.10914 7.01144 1.97933 6.81943 1.86695 6.61709C1.75382 6.41362 1.63419 6.15477 1.50811 5.84062C1.38365 5.52808 1.28909 5.2131 1.22443 4.89567C1.15979 4.57825 1.12342 4.2649 1.11532 3.9556C1.10725 3.64631 1.11532 3.3818 1.13957 3.16204C1.16381 2.94229 1.2123 2.69404 1.28504 2.41731C1.35778 2.14059 1.46286 1.84758 1.60024 1.53829L1.80633 1.07436L1.81846 1.03774L1.83058 1.00111L1.83788 0.996226L1.8427 0.988901L1.84755 0.981576L1.85482 0.976693L1.86212 0.981576L1.86695 0.988901L1.8718 0.996226L1.87907 1.00111L1.88637 1.00599L1.89119 1.01332L1.89604 1.02064L1.90332 1.02553L1.91544 1.04994L1.92756 1.07436L1.93486 1.07925L1.93969 1.08657L2.26701 1.45283C2.48522 1.697 2.74386 1.96967 3.04288 2.27081C3.34193 2.57195 3.50761 2.72822 3.53993 2.73962C3.57227 2.75264 3.61266 2.79007 3.66116 2.85194C3.70965 2.91218 3.8713 3.05624 4.14608 3.28413C4.42088 3.51202 4.78052 3.77655 5.22503 4.07769C5.66956 4.37883 6.16255 4.67592 6.70404 4.96892C7.24555 5.26193 7.82746 5.52644 8.44976 5.76249C9.07208 5.99853 9.50851 6.15316 9.75904 6.22642C10.0096 6.29967 10.4379 6.39326 11.0441 6.50721C11.6502 6.62117 12.1069 6.69442 12.414 6.72697C12.7211 6.75952 12.9313 6.77825 13.0444 6.78313L13.2141 6.78801L13.2093 6.75139L13.202 6.71476L13.1535 6.40955C13.1212 6.20608 13.105 5.9212 13.105 5.55494C13.105 5.18868 13.1333 4.85091 13.1899 4.54162C13.2465 4.23233 13.3313 3.91898 13.4444 3.60155C13.5576 3.28413 13.6683 3.02936 13.7766 2.83729C13.8865 2.64684 14.0304 2.42952 14.2082 2.18535C14.386 1.94118 14.6164 1.68887 14.8992 1.42841C15.1821 1.16795 15.5054 0.935989 15.8691 0.732519C16.2327 0.52905 16.5682 0.374391 16.8753 0.26859C17.1824 0.16279 17.441 0.0935916 17.6511 0.0610433C17.8613 0.028495 17.9663 0.00976693 17.9663 0.00488346V0.00488346Z" fill="#247CFF"/>
</svg>
